[img]http://img35.imageshack.us/img35/650/newge.jpg[/img]
[code]
New Years Eve 2011 CAM XViD-26K

Imdb: 
http://www.imdb.com/title/tt1598822/

Plot:
The lives of several couples and singles in New York intertwine over the course of New Year's Eve.

Sources:
UNKNOWN FOR VIDEO AND AUDIO THNXS MAN!

Notes:
CAM FOR THIS WAS VERY NICE :)
ADDED FEW FILTERS TO THE THE VIDEO AND AUDIO TO MAKE IT SOUND AND LOOK BETTER :)
ENJOY PEEPS :p

Greetz:
Xtreme Encode|FYA|ILLUMANTI|CM8|RX|VISION|HDSCENE|NIGHTMAREZ|xTriLL
To all the people who have helped me :P you know who you are

Anything to offer email us @: 26k@hushmail.me

Video
ID                                       : 0
Format                                   : MPEG-4 Visual
Format profile                           : Advanced Simple@L5
Format settings, BVOP                    : 2
Format settings, QPel                    : No
Format settings, GMC                     : No warppoints
Format settings, Matrix                  : Default (H.263)
Codec ID                                 : XVID
Codec ID/Hint                            : XviD
Duration                                 : 1h 48mn
Bit rate                                 : 1 600 Kbps
Width                                    : 624 pixels
Height                                   : 338 pixels
Display aspect ratio                     : 16:9
Frame rate                               : 29.970 fps
Color space                              : YUV
Chroma subsampling                       : 4:2:0
Bit depth                                : 8 bits
Scan type                                : Progressive
Compression mode                         : Lossy
Bits/(Pixel*Frame)                       : 0.253
Stream size                              : 1.21 GiB (92%)
Writing library                          : XviD 63

Audio
ID                                       : 1
Format                                   : MPEG Audio
Format version                           : Version 1
Format profile                           : Layer 3
Codec ID                                 : 55
Codec ID/Hint                            : MP3
Duration                                 : 1h 48mn
Bit rate mode                            : Constant
Bit rate                                 : 128 Kbps
Channel(s)                               : 2 channels
Sampling rate                            : 44.1 KHz
Compression mode                         : Lossy
Stream size                              : 99.1 MiB (7%)
Alignment                                : Aligned on interleaves
Interleave, duration                     : 33 ms (1.00 video frame)

[/code]
Screens:
[img]http://img214.imageshack.us/img214/586/vlcsnap2011122113h05m21.png[/img]
[img]http://img827.imageshack.us/img827/2535/vlcsnap2011122113h05m28.png[/img]
[img]http://img807.imageshack.us/img807/5368/vlcsnap2011122113h05m42.png[/img]
[img]http://img560.imageshack.us/img560/2583/vlcsnap2011122113h05m46.png[/img]
[img]http://img268.imageshack.us/img268/4841/vlcsnap2011122113h05m51.png[/img]
[img]http://img9.imageshack.us/img9/8733/vlcsnap2011122113h05m56.png[/img]

[img]http://img851.imageshack.us/img851/5503/26ks.jpg[/img]
Thank you smallz for banner!
